<svg width="82" height="37" viewBox="0 0 82 37" fill="none" xmlns="http://www.w3.org/2000/svg">
<path d="M13.5695 34.3C13.1362 35.4333 12.3862 36 11.3195 36H1.86953C1.56953 36 1.30286 35.9 1.06953 35.7C0.869531 35.4667 0.769531 35.2 0.769531 34.9L0.819531 34.6L11.7195 2.65C11.8529 2.21667 12.1029 1.83333 12.4695 1.5C12.8362 1.16666 13.3362 0.999998 13.9695 0.999998H27.8695C28.5029 0.999998 29.0029 1.16666 29.3695 1.5C29.7362 1.83333 29.9862 2.21667 30.1195 2.65L41.0195 34.6L41.0695 34.9C41.0695 35.2 40.9529 35.4667 40.7195 35.7C40.5195 35.9 40.2695 36 39.9695 36H30.5195C29.4529 36 28.7029 35.4333 28.2695 34.3L27.0195 30.8H14.8195L13.5695 34.3ZM20.9195 10.65L17.3695 21.05H24.4695L20.9195 10.65ZM66 13.7C69.6667 14.1 72.6 14.75 74.8 15.65C77.0333 16.55 78.65 17.7333 79.65 19.2C80.65 20.6667 81.15 22.5 81.15 24.7C81.15 27.1 80.3667 29.2 78.8 31C77.2667 32.7667 75.1333 34.1333 72.4 35.1C69.6667 36.0333 66.55 36.5 63.05 36.5C59.15 36.5 55.85 36.0167 53.15 35.05C50.45 34.0833 48.4333 32.8 47.1 31.2C45.7667 29.5667 45.1 27.7833 45.1 25.85C45.1 25.5167 45.2 25.25 45.4 25.05C45.6333 24.85 45.9167 24.75 46.25 24.75H56.5C57.2 24.75 57.7667 24.9667 58.2 25.4C58.7667 25.9333 59.4 26.3 60.1 26.5C60.8 26.6667 61.7833 26.75 63.05 26.75C66.2167 26.75 67.8 26.2667 67.8 25.3C67.8 24.9 67.5833 24.5667 67.15 24.3C66.75 24 66.0167 23.75 64.95 23.55C63.9167 23.3167 62.3833 23.0833 60.35 22.85C55.7833 22.3167 52.2833 21.1833 49.85 19.45C47.4167 17.6833 46.2 15.2 46.2 12C46.2 9.73333 46.8833 7.73333 48.25 6C49.6167 4.26667 51.55 2.91667 54.05 1.95C56.5833 0.983331 59.5167 0.499998 62.85 0.499998C66.3167 0.499998 69.35 1.05 71.95 2.15C74.55 3.21666 76.5333 4.55 77.9 6.15C79.2667 7.75 79.95 9.31667 79.95 10.85C79.95 11.1833 79.8333 11.45 79.6 11.65C79.4 11.85 79.1167 11.95 78.75 11.95H68C67.4333 11.95 66.9167 11.75 66.45 11.35C66.0833 11.0167 65.65 10.75 65.15 10.55C64.65 10.35 63.8833 10.25 62.85 10.25C60.6167 10.25 59.5 10.7167 59.5 11.65C59.5 12.15 59.9333 12.55 60.8 12.85C61.6667 13.1167 63.4 13.4 66 13.7Z" fill="white"/>
</svg>
